<mxfile host="Electron" agent="Mozilla/5.0 (Windows NT 10.0; Win64; x64) AppleWebKit/537.36 (KHTML, like Gecko) draw.io/24.7.17 Chrome/128.0.6613.36 Electron/32.0.1 Safari/537.36" version="24.7.17">
  <diagram name="第 1 页" id="4ITKdBKIut93aBneMAJV">
    <mxGraphModel dx="1221" dy="717" grid="1" gridSize="10" guides="1" tooltips="1" connect="1" arrows="1" fold="1" page="1" pageScale="1" pageWidth="4681" pageHeight="3300" math="0" shadow="0">
      <root>
        <mxCell id="0" />
        <mxCell id="1" parent="0" />
        <mxCell id="R7XrLAjljxG9ubvQaUxj-1" value="评价反馈" style="whiteSpace=wrap;html=1;align=center;" parent="1" vertex="1">
          <mxGeometry x="500" y="250" width="100" height="40" as="geometry" />
        </mxCell>
        <mxCell id="R7XrLAjljxG9ubvQaUxj-2" value="举报" style="whiteSpace=wrap;html=1;align=center;" parent="1" vertex="1">
          <mxGeometry x="500" y="400" width="100" height="40" as="geometry" />
        </mxCell>
        <mxCell id="R7XrLAjljxG9ubvQaUxj-3" value="举报证据" style="shape=ext;margin=3;double=1;whiteSpace=wrap;html=1;align=center;" parent="1" vertex="1">
          <mxGeometry x="300" y="510" width="100" height="40" as="geometry" />
        </mxCell>
        <mxCell id="R7XrLAjljxG9ubvQaUxj-4" value="抽象订单" style="whiteSpace=wrap;html=1;align=center;" parent="1" vertex="1">
          <mxGeometry x="150" y="310" width="100" height="40" as="geometry" />
        </mxCell>
        <mxCell id="R7XrLAjljxG9ubvQaUxj-6" value="" style="edgeStyle=orthogonalEdgeStyle;rounded=0;orthogonalLoop=1;jettySize=auto;html=1;shape=link;" parent="1" source="R7XrLAjljxG9ubvQaUxj-5" target="R7XrLAjljxG9ubvQaUxj-1" edge="1">
          <mxGeometry relative="1" as="geometry" />
        </mxCell>
        <mxCell id="R7XrLAjljxG9ubvQaUxj-8" value="" style="edgeStyle=orthogonalEdgeStyle;rounded=0;orthogonalLoop=1;jettySize=auto;html=1;entryX=1;entryY=0.5;entryDx=0;entryDy=0;" parent="1" source="R7XrLAjljxG9ubvQaUxj-5" target="R7XrLAjljxG9ubvQaUxj-4" edge="1">
          <mxGeometry relative="1" as="geometry">
            <mxPoint x="200" y="260" as="targetPoint" />
          </mxGeometry>
        </mxCell>
        <mxCell id="R7XrLAjljxG9ubvQaUxj-5" value="关联订单" style="shape=rhombus;perimeter=rhombusPerimeter;whiteSpace=wrap;html=1;align=center;" parent="1" vertex="1">
          <mxGeometry x="330" y="240" width="120" height="60" as="geometry" />
        </mxCell>
        <mxCell id="R7XrLAjljxG9ubvQaUxj-10" value="" style="edgeStyle=orthogonalEdgeStyle;rounded=0;orthogonalLoop=1;jettySize=auto;html=1;" parent="1" source="R7XrLAjljxG9ubvQaUxj-9" target="R7XrLAjljxG9ubvQaUxj-2" edge="1">
          <mxGeometry relative="1" as="geometry" />
        </mxCell>
        <mxCell id="R7XrLAjljxG9ubvQaUxj-11" value="" style="edgeStyle=orthogonalEdgeStyle;rounded=0;orthogonalLoop=1;jettySize=auto;html=1;entryX=1;entryY=0.5;entryDx=0;entryDy=0;" parent="1" source="R7XrLAjljxG9ubvQaUxj-9" target="R7XrLAjljxG9ubvQaUxj-4" edge="1">
          <mxGeometry relative="1" as="geometry" />
        </mxCell>
        <mxCell id="R7XrLAjljxG9ubvQaUxj-9" value="举报订单" style="shape=rhombus;perimeter=rhombusPerimeter;whiteSpace=wrap;html=1;align=center;" parent="1" vertex="1">
          <mxGeometry x="330" y="390" width="120" height="60" as="geometry" />
        </mxCell>
        <mxCell id="R7XrLAjljxG9ubvQaUxj-14" value="" style="edgeStyle=orthogonalEdgeStyle;rounded=0;orthogonalLoop=1;jettySize=auto;html=1;exitX=0.5;exitY=0;exitDx=0;exitDy=0;" parent="1" source="R7XrLAjljxG9ubvQaUxj-13" target="R7XrLAjljxG9ubvQaUxj-2" edge="1">
          <mxGeometry relative="1" as="geometry">
            <mxPoint x="550" y="500" as="sourcePoint" />
          </mxGeometry>
        </mxCell>
        <mxCell id="R7XrLAjljxG9ubvQaUxj-15" value="" style="edgeStyle=orthogonalEdgeStyle;rounded=0;orthogonalLoop=1;jettySize=auto;html=1;shape=link;exitX=0;exitY=0.5;exitDx=0;exitDy=0;" parent="1" source="R7XrLAjljxG9ubvQaUxj-13" target="R7XrLAjljxG9ubvQaUxj-3" edge="1">
          <mxGeometry relative="1" as="geometry">
            <mxPoint x="490" y="530" as="sourcePoint" />
          </mxGeometry>
        </mxCell>
        <mxCell id="R7XrLAjljxG9ubvQaUxj-13" value="举报上传" style="shape=rhombus;double=1;perimeter=rhombusPerimeter;whiteSpace=wrap;html=1;align=center;" parent="1" vertex="1">
          <mxGeometry x="490" y="500" width="120" height="60" as="geometry" />
        </mxCell>
        <mxCell id="7dIEb3Y4OpuQPFhbH73a-1" value="评价ID" style="ellipse;whiteSpace=wrap;html=1;align=center;fontStyle=4;" parent="1" vertex="1">
          <mxGeometry x="670" y="255" width="80" height="30" as="geometry" />
        </mxCell>
        <mxCell id="7dIEb3Y4OpuQPFhbH73a-2" value="" style="endArrow=none;html=1;rounded=0;exitX=1;exitY=0.5;exitDx=0;exitDy=0;entryX=0;entryY=0.5;entryDx=0;entryDy=0;" parent="1" source="R7XrLAjljxG9ubvQaUxj-1" target="7dIEb3Y4OpuQPFhbH73a-1" edge="1">
          <mxGeometry relative="1" as="geometry">
            <mxPoint x="660" y="320" as="sourcePoint" />
            <mxPoint x="820" y="320" as="targetPoint" />
          </mxGeometry>
        </mxCell>
        <mxCell id="7dIEb3Y4OpuQPFhbH73a-3" value="总体星级" style="ellipse;whiteSpace=wrap;html=1;align=center;" parent="1" vertex="1">
          <mxGeometry x="680" y="190" width="80" height="40" as="geometry" />
        </mxCell>
        <mxCell id="7dIEb3Y4OpuQPFhbH73a-4" value="" style="endArrow=none;html=1;rounded=0;exitX=1;exitY=0.25;exitDx=0;exitDy=0;entryX=0;entryY=0.5;entryDx=0;entryDy=0;" parent="1" source="R7XrLAjljxG9ubvQaUxj-1" target="7dIEb3Y4OpuQPFhbH73a-3" edge="1">
          <mxGeometry relative="1" as="geometry">
            <mxPoint x="550" y="210" as="sourcePoint" />
            <mxPoint x="620" y="210" as="targetPoint" />
          </mxGeometry>
        </mxCell>
        <mxCell id="7dIEb3Y4OpuQPFhbH73a-5" value="描述相符度" style="ellipse;whiteSpace=wrap;html=1;align=center;" parent="1" vertex="1">
          <mxGeometry x="680" y="310" width="90" height="40" as="geometry" />
        </mxCell>
        <mxCell id="7dIEb3Y4OpuQPFhbH73a-6" value="" style="endArrow=none;html=1;rounded=0;exitX=1;exitY=0.75;exitDx=0;exitDy=0;entryX=0;entryY=0.5;entryDx=0;entryDy=0;" parent="1" source="R7XrLAjljxG9ubvQaUxj-1" target="7dIEb3Y4OpuQPFhbH73a-5" edge="1">
          <mxGeometry relative="1" as="geometry">
            <mxPoint x="620" y="290" as="sourcePoint" />
            <mxPoint x="690" y="290" as="targetPoint" />
          </mxGeometry>
        </mxCell>
        <mxCell id="7dIEb3Y4OpuQPFhbH73a-7" value="服务态度" style="ellipse;whiteSpace=wrap;html=1;align=center;" parent="1" vertex="1">
          <mxGeometry x="600" y="150" width="80" height="40" as="geometry" />
        </mxCell>
        <mxCell id="7dIEb3Y4OpuQPFhbH73a-8" value="" style="endArrow=none;html=1;rounded=0;exitX=0.75;exitY=0;exitDx=0;exitDy=0;entryX=0;entryY=1;entryDx=0;entryDy=0;" parent="1" source="R7XrLAjljxG9ubvQaUxj-1" target="7dIEb3Y4OpuQPFhbH73a-7" edge="1">
          <mxGeometry relative="1" as="geometry">
            <mxPoint x="630" y="300" as="sourcePoint" />
            <mxPoint x="700" y="300" as="targetPoint" />
          </mxGeometry>
        </mxCell>
        <mxCell id="7dIEb3Y4OpuQPFhbH73a-9" value="是否匿名" style="ellipse;whiteSpace=wrap;html=1;align=center;" parent="1" vertex="1">
          <mxGeometry x="430" y="150" width="80" height="40" as="geometry" />
        </mxCell>
        <mxCell id="7dIEb3Y4OpuQPFhbH73a-10" value="" style="endArrow=none;html=1;rounded=0;exitX=1;exitY=1;exitDx=0;exitDy=0;entryX=0.25;entryY=0;entryDx=0;entryDy=0;" parent="1" source="7dIEb3Y4OpuQPFhbH73a-9" target="R7XrLAjljxG9ubvQaUxj-1" edge="1">
          <mxGeometry relative="1" as="geometry">
            <mxPoint x="490" y="200" as="sourcePoint" />
            <mxPoint x="560" y="200" as="targetPoint" />
          </mxGeometry>
        </mxCell>
        <mxCell id="7dIEb3Y4OpuQPFhbH73a-11" value="创建时间" style="ellipse;whiteSpace=wrap;html=1;align=center;" parent="1" vertex="1">
          <mxGeometry x="510" y="120" width="80" height="40" as="geometry" />
        </mxCell>
        <mxCell id="7dIEb3Y4OpuQPFhbH73a-12" value="" style="endArrow=none;html=1;rounded=0;exitX=0.5;exitY=1;exitDx=0;exitDy=0;entryX=0.5;entryY=0;entryDx=0;entryDy=0;" parent="1" source="7dIEb3Y4OpuQPFhbH73a-11" target="R7XrLAjljxG9ubvQaUxj-1" edge="1">
          <mxGeometry relative="1" as="geometry">
            <mxPoint x="580" y="180" as="sourcePoint" />
            <mxPoint x="650" y="180" as="targetPoint" />
          </mxGeometry>
        </mxCell>
        <mxCell id="7dIEb3Y4OpuQPFhbH73a-13" value="卖家回复" style="ellipse;whiteSpace=wrap;html=1;align=center;" parent="1" vertex="1">
          <mxGeometry x="640" y="380" width="80" height="40" as="geometry" />
        </mxCell>
        <mxCell id="7dIEb3Y4OpuQPFhbH73a-14" value="" style="endArrow=none;html=1;rounded=0;exitX=0.75;exitY=1;exitDx=0;exitDy=0;entryX=0;entryY=0;entryDx=0;entryDy=0;" parent="1" source="R7XrLAjljxG9ubvQaUxj-1" target="7dIEb3Y4OpuQPFhbH73a-13" edge="1">
          <mxGeometry relative="1" as="geometry">
            <mxPoint x="540" y="320" as="sourcePoint" />
            <mxPoint x="610" y="320" as="targetPoint" />
          </mxGeometry>
        </mxCell>
        <mxCell id="7dIEb3Y4OpuQPFhbH73a-15" value="举报ID" style="ellipse;whiteSpace=wrap;html=1;align=center;fontStyle=4;" parent="1" vertex="1">
          <mxGeometry x="430" y="330" width="70" height="40" as="geometry" />
        </mxCell>
        <mxCell id="7dIEb3Y4OpuQPFhbH73a-16" value="" style="endArrow=none;html=1;rounded=0;exitX=1;exitY=1;exitDx=0;exitDy=0;entryX=0.25;entryY=0;entryDx=0;entryDy=0;" parent="1" source="7dIEb3Y4OpuQPFhbH73a-15" target="R7XrLAjljxG9ubvQaUxj-2" edge="1">
          <mxGeometry relative="1" as="geometry">
            <mxPoint x="500" y="379" as="sourcePoint" />
            <mxPoint x="570" y="379" as="targetPoint" />
          </mxGeometry>
        </mxCell>
        <mxCell id="7dIEb3Y4OpuQPFhbH73a-17" value="类型" style="ellipse;whiteSpace=wrap;html=1;align=center;" parent="1" vertex="1">
          <mxGeometry x="515" y="320" width="70" height="30" as="geometry" />
        </mxCell>
        <mxCell id="7dIEb3Y4OpuQPFhbH73a-18" value="" style="endArrow=none;html=1;rounded=0;exitX=0.5;exitY=1;exitDx=0;exitDy=0;entryX=0.5;entryY=0;entryDx=0;entryDy=0;" parent="1" source="7dIEb3Y4OpuQPFhbH73a-17" target="R7XrLAjljxG9ubvQaUxj-2" edge="1">
          <mxGeometry relative="1" as="geometry">
            <mxPoint x="530" y="360" as="sourcePoint" />
            <mxPoint x="600" y="360" as="targetPoint" />
          </mxGeometry>
        </mxCell>
        <mxCell id="7dIEb3Y4OpuQPFhbH73a-19" value="处理优先级" style="ellipse;whiteSpace=wrap;html=1;align=center;" parent="1" vertex="1">
          <mxGeometry x="640" y="470" width="90" height="40" as="geometry" />
        </mxCell>
        <mxCell id="7dIEb3Y4OpuQPFhbH73a-20" value="" style="endArrow=none;html=1;rounded=0;exitX=0.75;exitY=1;exitDx=0;exitDy=0;entryX=0;entryY=0;entryDx=0;entryDy=0;" parent="1" source="R7XrLAjljxG9ubvQaUxj-2" target="7dIEb3Y4OpuQPFhbH73a-19" edge="1">
          <mxGeometry relative="1" as="geometry">
            <mxPoint x="590" y="460" as="sourcePoint" />
            <mxPoint x="660" y="460" as="targetPoint" />
          </mxGeometry>
        </mxCell>
        <mxCell id="7dIEb3Y4OpuQPFhbH73a-21" value="证据ID" style="ellipse;whiteSpace=wrap;html=1;align=center;fontStyle=4;" parent="1" vertex="1">
          <mxGeometry x="140" y="470" width="80" height="30" as="geometry" />
        </mxCell>
        <mxCell id="7dIEb3Y4OpuQPFhbH73a-22" value="" style="endArrow=none;html=1;rounded=0;exitX=1;exitY=0.5;exitDx=0;exitDy=0;entryX=0;entryY=0.25;entryDx=0;entryDy=0;" parent="1" source="7dIEb3Y4OpuQPFhbH73a-21" target="R7XrLAjljxG9ubvQaUxj-3" edge="1">
          <mxGeometry relative="1" as="geometry">
            <mxPoint x="265" y="466" as="sourcePoint" />
            <mxPoint x="330" y="500" as="targetPoint" />
          </mxGeometry>
        </mxCell>
        <mxCell id="7dIEb3Y4OpuQPFhbH73a-23" value="文件类型" style="ellipse;whiteSpace=wrap;html=1;align=center;" parent="1" vertex="1">
          <mxGeometry x="120" y="512.5" width="80" height="35" as="geometry" />
        </mxCell>
        <mxCell id="7dIEb3Y4OpuQPFhbH73a-24" value="" style="endArrow=none;html=1;rounded=0;exitX=1;exitY=0.5;exitDx=0;exitDy=0;entryX=0;entryY=0.5;entryDx=0;entryDy=0;" parent="1" source="7dIEb3Y4OpuQPFhbH73a-23" target="R7XrLAjljxG9ubvQaUxj-3" edge="1">
          <mxGeometry relative="1" as="geometry">
            <mxPoint x="230" y="495" as="sourcePoint" />
            <mxPoint x="280" y="540" as="targetPoint" />
          </mxGeometry>
        </mxCell>
        <mxCell id="7dIEb3Y4OpuQPFhbH73a-25" value="文件存储路径" style="ellipse;whiteSpace=wrap;html=1;align=center;" parent="1" vertex="1">
          <mxGeometry x="130" y="560" width="90" height="40" as="geometry" />
        </mxCell>
        <mxCell id="7dIEb3Y4OpuQPFhbH73a-26" value="" style="endArrow=none;html=1;rounded=0;exitX=1;exitY=0.5;exitDx=0;exitDy=0;entryX=0;entryY=0.75;entryDx=0;entryDy=0;" parent="1" source="7dIEb3Y4OpuQPFhbH73a-25" target="R7XrLAjljxG9ubvQaUxj-3" edge="1">
          <mxGeometry relative="1" as="geometry">
            <mxPoint x="240" y="505" as="sourcePoint" />
            <mxPoint x="320" y="540" as="targetPoint" />
          </mxGeometry>
        </mxCell>
      </root>
    </mxGraphModel>
  </diagram>
</mxfile>
